<svg width="114" height="40" viewBox="0 0 114 40" fill="none" xmlns="http://www.w3.org/2000/svg">
<path d="M4.42272 10.7012L0 14.9812V18.4536L3.23614 21.6898V23.5428L4.31485 23.5447V22.5451C4.31485 22.5185 4.31581 22.4921 4.31771 22.466L4.31485 22.466V21.243L1.07871 18.0068V15.4384L3.34401 13.2462V17.7643L4.42666 18.7696H6.36046L7.44311 17.7643V13.2462L9.70841 15.4384V18.0068L6.47227 21.243V22.4697L6.46968 22.4697C6.4714 22.4946 6.47227 22.5197 6.47227 22.5451V23.5484L7.55099 23.5502V21.6898L10.7871 18.4536V14.9812L6.3644 10.7012V17.2939L5.93686 17.6909H4.85026L4.42272 17.2939V10.7012Z" fill="#FFC000"/>
<path d="M3.23614 4.31485H21.2536L24.1371 10.2003L19.2143 20.3877H27.0886L29.3528 27.9352L27.0937 35.3818H7.55099V22.9766H6.47227V30.7433C6.47227 31.3391 5.98932 31.822 5.39356 31.822C4.7978 31.822 4.31485 31.3391 4.31485 30.7433V22.9766H3.23614V39.6966H30.2938L33.8597 27.9421L30.2989 16.0728H26.0916L28.9356 10.1873L23.9445 0H3.23614V4.31485Z" fill="#FFC000"/>
<path d="M5.93292 30.7433C5.93292 31.0412 5.69144 31.2827 5.39356 31.2827C5.09568 31.2827 4.85421 31.0412 4.85421 30.7433C4.85421 30.4454 5.09568 30.2039 5.39356 30.2039C5.69144 30.2039 5.93292 30.4454 5.93292 30.7433Z" fill="#FFC000"/>
<path d="M7.55099 4.31485H3.23614L7.55099 8.6297V4.31485Z" fill="#FFC000"/>
<path d="M35.4492 39.6966H39.5904V30.7467C39.5904 30.3118 39.6713 29.9022 39.8331 29.518C39.9949 29.1337 40.2174 28.7999 40.5006 28.5168C40.7838 28.2336 41.1175 28.0111 41.5018 27.8493C41.8861 27.6875 42.2956 27.6066 42.7305 27.6066H46.3863V23.4805H42.7305C41.8203 23.4805 40.9405 23.6474 40.091 23.9811C39.2415 24.3047 38.4831 24.7699 37.8156 25.3767L36.4504 23.4502H35.4492V39.6966Z" fill="#FFC000"/>
<path d="M48.3128 39.6966H52.4844V23.4502H48.3128V39.6966Z" fill="#FFC000"/>
<path d="M56.0947 39.6966H60.4483V35.343L63.7704 30.8984L68.5488 39.6966H73.494L66.6223 27.1212L73.494 17.9437H68.5488L60.4483 28.8202V17.9437H56.0947V39.6966Z" fill="#FFC000"/>
<path fill-rule="evenodd" clip-rule="evenodd" d="M89.0882 34.8272C89.523 33.7755 89.7404 32.6428 89.7404 31.4293C89.7404 30.1348 89.523 28.9617 89.0882 27.91C88.6533 26.8481 88.0617 25.943 87.3133 25.1947C86.565 24.4362 85.6852 23.8547 84.6739 23.4502C83.6727 23.0356 82.5956 22.8282 81.4428 22.8282C80.3 22.8282 79.223 23.0457 78.2117 23.4805C77.2105 23.9154 76.3307 24.5171 75.5722 25.2857C74.8239 26.0442 74.2323 26.9493 73.7974 28.001C73.3625 29.0528 73.1451 30.1955 73.1451 31.4293C73.1451 32.6428 73.3625 33.7755 73.7974 34.8272C74.2323 35.8689 74.8239 36.774 75.5722 37.5426C76.3307 38.301 77.2105 38.9027 78.2117 39.3477C79.223 39.7826 80.3 40 81.4428 40C82.5956 40 83.6727 39.7826 84.6739 39.3477C85.6852 38.9027 86.565 38.301 87.3133 37.5426C88.0617 36.774 88.6533 35.8689 89.0882 34.8272ZM85.2351 29.6241C85.4576 30.1601 85.5688 30.7618 85.5688 31.4293C85.5688 32.0866 85.4576 32.6884 85.2351 33.2345C85.0228 33.7805 84.7295 34.2457 84.3553 34.63C83.9811 35.0143 83.5412 35.3127 83.0356 35.525C82.54 35.7374 82.0091 35.8436 81.4428 35.8436C80.8764 35.8436 80.3405 35.7323 79.8348 35.5099C79.3393 35.2773 78.9044 34.9638 78.5303 34.5694C78.1662 34.175 77.878 33.7098 77.6656 33.1738C77.4532 32.6378 77.347 32.0563 77.347 31.4293C77.347 30.7618 77.4532 30.1601 77.6656 29.6241C77.878 29.078 78.1662 28.6128 78.5303 28.2286C78.9044 27.8341 79.3393 27.5358 79.8348 27.3336C80.3405 27.1212 80.8764 27.015 81.4428 27.015C82.0091 27.015 82.54 27.1212 83.0356 27.3336C83.5412 27.5358 83.9811 27.8341 84.3553 28.2286C84.7295 28.6128 85.0228 29.078 85.2351 29.6241Z" fill="#FFC000"/>
<path d="M92.031 39.6966H96.2026V16.988H92.031V39.6966Z" fill="#FFC000"/>
<path fill-rule="evenodd" clip-rule="evenodd" d="M106.321 35.8284C106.159 35.8082 105.997 35.7728 105.835 35.7222L113.602 26.3627C113.218 25.8166 112.773 25.3261 112.267 24.8913C111.761 24.4463 111.215 24.0721 110.629 23.7688C110.052 23.4654 109.44 23.2328 108.793 23.071C108.146 22.9092 107.484 22.8282 106.806 22.8282C105.663 22.8282 104.586 23.0356 103.575 23.4502C102.574 23.8648 101.694 24.4463 100.935 25.1947C100.187 25.943 99.5955 26.8481 99.1606 27.91C98.7258 28.9719 98.5083 30.145 98.5083 31.4293C98.5083 32.6833 98.7258 33.8362 99.1606 34.8879C99.5955 35.9295 100.187 36.8296 100.935 37.5881C101.694 38.3465 102.574 38.9381 103.575 39.3629C104.586 39.7876 105.663 40 106.806 40C107.484 40 108.141 39.9191 108.778 39.7573C109.425 39.6056 110.037 39.3781 110.614 39.0747C111.2 38.7713 111.741 38.4022 112.237 37.9673C112.742 37.5324 113.187 37.042 113.572 36.4959L110.538 33.4468C110.376 33.8109 110.163 34.1446 109.901 34.448C109.648 34.7413 109.354 34.9941 109.021 35.2065C108.697 35.4087 108.348 35.5655 107.974 35.6767C107.6 35.788 107.211 35.8436 106.806 35.8436C106.644 35.8436 106.482 35.8385 106.321 35.8284ZM107.382 27.0453C107.575 27.0656 107.767 27.1111 107.959 27.1819L103.135 33.5833C103.054 33.4418 102.988 33.28 102.938 33.0979C102.887 32.9159 102.842 32.7288 102.801 32.5367C102.771 32.3344 102.746 32.1372 102.725 31.9451C102.715 31.7529 102.71 31.581 102.71 31.4293C102.71 30.7517 102.816 30.145 103.029 29.609C103.241 29.0629 103.529 28.5977 103.893 28.2134C104.268 27.8291 104.703 27.5358 105.198 27.3336C105.704 27.1212 106.24 27.015 106.806 27.015C107.008 27.015 107.2 27.0251 107.382 27.0453Z" fill="#FFC000"/>
<path d="M51.7991 16.5809L53.1961 19.0006L51.7991 21.4203H49.0051L47.6081 19.0006L49.0051 16.5809H51.7991Z" fill="#FFC000"/>
</svg>
