<svg width="88" height="102" viewBox="0 0 88 102" fill="none" xmlns="http://www.w3.org/2000/svg">
<path d="M11.8638 27.4966L0.5 38.4941V47.4164L8.81501 55.7317V60.493L11.5867 60.4978V57.9293C11.5867 57.861 11.5892 57.7932 11.594 57.726L11.5867 57.726V54.5836L3.27167 46.2683V39.6689L9.09217 34.036V45.6451L11.874 48.2283H16.8427L19.6245 45.6451V34.036L25.445 39.6689V46.2683L17.13 54.5836V57.7355L17.1233 57.7355C17.1278 57.7996 17.13 57.8642 17.13 57.9293V60.5073L19.9017 60.512V55.7317L28.2167 47.4164V38.4941L16.8528 27.4966V44.4364L15.7543 45.4565H12.9624L11.8638 44.4364V27.4966Z" fill="#FFC000"/>
<path d="M8.81501 11.087H55.1094L62.5184 26.2097L49.8698 52.3859H70.102L75.9198 71.7791L70.1153 90.913H19.9017V59.038H17.13V78.9946C17.13 80.5254 15.8891 81.7663 14.3583 81.7663C12.8276 81.7663 11.5867 80.5254 11.5867 78.9946V59.038H8.81501V102H78.3375L87.5 71.797L78.3508 41.2989H67.5403L74.8477 26.1762L62.0235 0H8.81501V11.087Z" fill="#FFC000"/>
<path d="M15.7442 78.9946C15.7442 79.76 15.1237 80.3804 14.3583 80.3804C13.593 80.3804 12.9725 79.76 12.9725 78.9946C12.9725 78.2292 13.593 77.6087 14.3583 77.6087C15.1237 77.6087 15.7442 78.2292 15.7442 78.9946Z" fill="#FFC000"/>
<path d="M19.9017 11.087H8.81501L19.9017 22.1739V11.087Z" fill="#FFC000"/>
</svg>
