<svg width="34" height="40" viewBox="0 0 34 40" fill="none" xmlns="http://www.w3.org/2000/svg">
<path d="M4.44104 10.783L0 15.0957V18.5947L3.24954 21.8556V23.7228L4.33272 23.7246V22.7174C4.33272 22.6906 4.33369 22.664 4.33559 22.6377L4.33272 22.6377V21.4053L1.08318 18.1444V15.5564L3.35786 13.3475V17.9L4.445 18.913H6.38681L7.47395 17.9V13.3475L9.74863 15.5564V18.1444L6.49909 21.4053V22.6414L6.49648 22.6414C6.49821 22.6665 6.49909 22.6918 6.49909 22.7174V23.7283L7.58227 23.7302V21.8556L10.8318 18.5947V15.0957L6.39077 10.783V17.426L5.96145 17.8261H4.87036L4.44104 17.426V10.783Z" fill="#FFC000"/>
<path d="M3.24954 4.34783H21.3416L24.2371 10.2783L19.2939 20.5435H27.2008L29.4744 28.1487L27.206 35.6522H7.58227V23.1522H6.49909V30.9783C6.49909 31.5786 6.01413 32.0652 5.4159 32.0652C4.81768 32.0652 4.33272 31.5786 4.33272 30.9783V23.1522H3.24954V40H30.4193L34 28.1557L30.4245 16.1957H26.1997L29.0554 10.2652L24.0437 0H3.24954V4.34783Z" fill="#FFC000"/>
<path d="M5.9575 30.9783C5.9575 31.2784 5.71502 31.5217 5.4159 31.5217C5.11679 31.5217 4.87431 31.2784 4.87431 30.9783C4.87431 30.6781 5.11679 30.4348 5.4159 30.4348C5.71502 30.4348 5.9575 30.6781 5.9575 30.9783Z" fill="#FFC000"/>
<path d="M7.58227 4.34783H3.24954L7.58227 8.69565V4.34783Z" fill="#FFC000"/>
</svg>
