<svg width="119" height="28" viewBox="0 0 119 28" fill="none" xmlns="http://www.w3.org/2000/svg">
<path fill-rule="evenodd" clip-rule="evenodd" d="M12.083 13H14.029C14.118 11.454 14.412 10.03 14.866 8.882C14.135 9.32992 13.5084 9.92919 13.0284 10.6395C12.5483 11.3498 12.226 12.1547 12.083 13ZM18 6C15.8783 6 13.8434 6.84285 12.3431 8.34315C10.8429 9.84344 10 11.8783 10 14C10 16.1217 10.8429 18.1566 12.3431 19.6569C13.8434 21.1571 15.8783 22 18 22C20.1217 22 22.1566 21.1571 23.6569 19.6569C25.1571 18.1566 26 16.1217 26 14C26 11.8783 25.1571 9.84344 23.6569 8.34315C22.1566 6.84285 20.1217 6 18 6ZM18 8C17.924 8 17.768 8.032 17.535 8.262C17.297 8.496 17.038 8.885 16.798 9.444C16.409 10.351 16.125 11.586 16.032 13H19.968C19.875 11.586 19.591 10.351 19.202 9.444C18.962 8.884 18.702 8.496 18.465 8.262C18.232 8.032 18.076 8 18 8ZM21.971 13C21.882 11.454 21.588 10.03 21.134 8.882C21.865 9.32992 22.4916 9.92919 22.9716 10.6395C23.4517 11.3498 23.774 12.1547 23.917 13H21.971ZM19.968 15H16.032C16.125 16.414 16.409 17.649 16.798 18.556C17.038 19.116 17.298 19.504 17.535 19.738C17.768 19.968 17.924 20 18 20C18.076 20 18.232 19.968 18.465 19.738C18.703 19.504 18.963 19.115 19.202 18.556C19.591 17.649 19.875 16.414 19.968 15ZM21.134 19.118C21.588 17.971 21.882 16.546 21.971 15H23.917C23.774 15.8453 23.4517 16.6502 22.9716 17.3605C22.4916 18.0708 21.865 18.6701 21.134 19.118ZM14.866 19.118C14.412 17.97 14.118 16.546 14.03 15H12.083C12.226 15.8453 12.5483 16.6502 13.0284 17.3605C13.5084 18.0708 14.135 18.6701 14.866 19.118Z" fill="#585863"/>
<path fill-rule="evenodd" clip-rule="evenodd" d="M96.293 11.293C96.4806 11.1055 96.7349 11.0002 97 11.0002C97.2652 11.0002 97.5195 11.1055 97.707 11.293L101 14.586L104.293 11.293C104.385 11.1975 104.496 11.1213 104.618 11.0689C104.74 11.0165 104.871 10.9889 105.004 10.9878C105.136 10.9866 105.268 11.0119 105.391 11.0622C105.514 11.1125 105.626 11.1867 105.719 11.2806C105.813 11.3745 105.888 11.4862 105.938 11.6091C105.988 11.7319 106.013 11.8636 106.012 11.9964C106.011 12.1292 105.984 12.2604 105.931 12.3824C105.879 12.5044 105.803 12.6148 105.707 12.707L101.707 16.707C101.52 16.8945 101.265 16.9998 101 16.9998C100.735 16.9998 100.481 16.8945 100.293 16.707L96.293 12.707C96.1056 12.5195 96.0002 12.2652 96.0002 12C96.0002 11.7348 96.1056 11.4805 96.293 11.293Z" fill="#585863"/>
</svg>
